v 65.2077713 4.999996185 4.89117384
vn 0.08479318768 -0.01814515702 0.9962333441
v 65 4.999996185 4.900000095
vn 0.01380368229 -0.01224798709 0.9998297095
v 65 1.500192361e-16 2.450000048
vn 3.013585996e-16 -1 3.880897441e-15
v 64.58594513 4.999996185 4.864758968
vn -0.1689947695 -0.00921158772 0.9855738878
v 64.38265228 4.999996185 4.82094574
vn -0.2519379854 -0.01814516261 0.9675732851
v 64.79222107 4.999996185 4.89117384
vn -0.07103724778 -0.01224785857 0.9973984361
v 64.18380737 4.999996185 4.76004982
vn -0.3331258297 -0.00921158772 0.9428373575
v 63.99084091 4.999996185 4.682509899
vn -0.4118322432 -0.01814516447 0.9110789895
v 63.80514526 4.999996185 4.588884354
vn -0.487672627 -0.009211589582 0.872977972
v 63.46085739 4.999996185 4.35618782
vn -0.6281949878 -0.009211590514 0.7780014277
v 63.30474854 4.999996185 4.218792439
vn -0.6918267608 -0.01814516634 0.721835494
v 63.62805939 4.999996185 4.479848862
vn -0.559880197 -0.01814517193 0.8283748627
v 63.16085052 4.999996185 4.068653107
vn -0.7506392598 -0.009211590514 0.6606481075
v 63.03020477 4.999996185 3.906851292
vn -0.8038629293 -0.01814517379 0.594537735
v 62.91374969 4.999996185 3.73455286
vn -0.8514918685 -0.00921159517 0.5242869258
v 62.72666931 4.999996185 3.363498449
vn -0.9278516769 -0.009211593308 0.3728356659
v 62.65739059 4.999996185 3.167415857
vn -0.956009984 -0.01814516634 0.2927723825
v 62.81232834 4.999996185 3.552999258
vn -0.8927801251 -0.0181451831 0.450127095
v 62.6049881 4.999996185 2.966164351
vn -0.9775139093 -0.009211588651 0.210669741
v 62.56984329 4.999996185 2.761193752
vn -0.9917365909 -0.01814516447 0.1270012408
v 62.55220413 4.999996185 2.553981066
vn -0.9990562797 -0.009211593308 0.04244601727
v 62.56984329 4.999996185 2.138806343
vn -0.9918577671 -0.00921159517 -0.1270167679
v 62.6049881 4.999996185 1.933835745
vn -0.977394402 -0.01814517193 -0.2106440067
v 62.55220413 4.999996185 2.34601903
vn -0.9989342093 -0.01814518496 -0.04244083166
v 62.65739059 4.999996185 1.732584238
vn -0.9561268091 -0.009211593308 -0.2928081751
v 62.72666931 4.999996185 1.536501646
vn -0.9277382493 -0.01814517751 -0.3727900982
v 62.81232834 4.999996185 1.347000837
vn -0.8928893209 -0.009211597033 -0.4501820207
v 63.03020477 4.999996185 0.9931487441
vn -0.8039610982 -0.00921159517 -0.5946105123
v 63.16085052 4.999996185 0.8313469887
vn -0.7505474091 -0.01814517379 -0.6605674028
v 62.91374969 4.999996185 1.165447116
vn -0.8513877988 -0.01814518496 -0.5242227912
v 63.30474854 4.999996185 0.6812076569
vn -0.6919111609 -0.009211593308 -0.7219238877
v 63.46085739 4.999996185 0.5438123345
vn -0.6281181574 -0.01814517751 -0.7779063582
v 63.62805939 4.999996185 0.4201513529
vn -0.5598813891 -0.01807982475 -0.8283754587
v 63.99084091 4.999996185 0.2174900174
vn -0.4118821025 -0.00921158772 -0.9111905694
v 64.18380737 4.999996185 0.1399502456
vn -0.3330849111 -0.01814516075 -0.9427222013
v 63.80514526 4.999996185 0.3111155033
vn -0.5236006975 -0.009219894186 -0.851913929
v 64.38265228 4.999996185 0.07905445248
vn -0.251969099 -0.00921158772 -0.9676914215
v 64.58594513 4.999996185 0.0352409482
vn -0.1689744443 -0.01814516447 -0.9854533672
v 64.79222107 4.999996185 0.008826139383
vn -0.08480173349 -0.009211586788 -0.9963552356
v 65.2077713 4.999996185 0.008826139383
vn 0.08480328321 -0.009211584926 -0.9963551164
v 65.41404724 4.999996185 0.0352409482
vn 0.1689744443 -0.01814515516 -0.9854533672
v 65 4.999996185 6.053596735e-08
vn 2.182276034e-13 -0.01814516075 -0.999835372
v 65.61734009 4.999996185 0.07905445248
vn 0.2519645989 -0.009211583994 -0.9676926136
v 65.81619263 4.999996185 0.1399502456
vn 0.3330820501 -0.01814516075 -0.9427232146
v 66.00915527 4.999996185 0.2174900174
vn 0.4118889868 -0.0092115812 -0.91118747
v 66.37193298 4.999996185 0.4201513529
vn 0.5599449277 -0.009211580269 -0.8284786344
v 66.53913879 4.999996185 0.5438123345
vn 0.6281091571 -0.01814515889 -0.77791363
v 66.19484711 4.999996185 0.3111155033
vn 0.4876171649 -0.01814514026 -0.8728689551
v 66.69525146 4.999996185 0.6812076569
vn 0.6919157505 -0.009211578406 -0.721919477
v 66.83914185 4.999996185 0.8313469887
vn 0.7505565286 -0.01814513095 -0.6605570912
v 66.9697876 4.999996185 0.9931487441
vn 0.8039610982 -0.009211571887 -0.5946105123
v 67.18766785 4.999996185 1.347000837
vn 0.8928893209 -0.009211570956 -0.4501820207
v 67.27332306 4.999996185 1.536501646
vn 0.9277382493 -0.01814512536 -0.3727900982
v 67.08624268 4.999996185 1.165447116
vn 0.8513836861 -0.01814513654 -0.5242294669
v 67.34260559 4.999996185 1.732584238
vn 0.9561268091 -0.009211566299 -0.2928081751
v 67.39500427 4.999996185 1.933835745
vn 0.977394402 -0.01814511605 -0.2106440067
v 67.43015289 4.999996185 2.138806343
vn 0.9918566346 -0.00921157375 -0.127025798
v 67.44779205 4.999996185 2.553981066
vn 0.9990562797 -0.009211579338 0.04244601727
v 67.43015289 4.999996185 2.761193752
vn 0.9917353988 -0.01814513654 0.127010271
v 67.44779205 4.999996185 2.34601903
vn 0.9989342093 -0.01814515702 -0.04244083166
v 67.39500427 4.999996185 2.966164351
vn 0.9775139093 -0.009211574681 0.210669741
v 67.34260559 4.999996185 3.167415857
vn 0.956009984 -0.01814514026 0.2927723825
v 67.27332306 4.999996185 3.363498449
vn 0.9278516769 -0.009211580269 0.3728356659
v 67.08624268 4.999996185 3.73455286
vn 0.8514877558 -0.009211576544 0.5242936015
v 66.9697876 4.999996185 3.906851292
vn 0.8038629293 -0.01814512722 0.594537735
v 67.18766785 4.999996185 3.552999258
vn 0.8927801251 -0.01814515702 0.450127095
v 66.83914185 4.999996185 4.068653107
vn 0.7506483197 -0.009211580269 0.6606377363
v 66.69525146 4.999996185 4.218792439
vn 0.6918312907 -0.01814516634 0.7218311429
v 66.53913879 4.999996185 4.35618782
vn 0.6281860471 -0.0092115812 0.7780086398
v 66.19484711 4.999996185 4.588884354
vn 0.4876765311 -0.009211579338 0.8729757667
v 66.00915527 4.999996185 4.682509899
vn 0.4118391275 -0.01814515144 0.9110758901
v 66.37193298 4.999996185 4.479848862
vn 0.5598759055 -0.01814514026 0.8283777237
v 65.81619263 4.999996185 4.76004982
vn 0.3331229389 -0.009211580269 0.9428384304
v 65.61734009 4.999996185 4.82094574
vn 0.2519334853 -0.01814514771 0.9675744176
v 65.41404724 4.999996185 4.864758968
vn 0.1689947695 -0.009211583063 0.9855738878
v 64.58594513 135 0.0352409482
vn -0.168736577 -0.05595226958 -0.9840717912
v 65 135 6.053596024e-08
vn 2.51611984e-16 -0.0001346811187 -1
v 64.18380737 135 0.1399502456
vn -0.3311372399 -0.1094886512 -0.9372088313
v 63.80514526 135 0.3111155033
vn -0.4715364277 -0.1894922853 -0.8612468243
v 63.46085739 135 0.5438123345
vn -0.6045532227 -0.1742349118 -0.7772757411
v 63.16085052 135 0.8313469887
vn -0.729003787 -0.2385294586 -0.6416051388
v 62.91374969 135 1.165447116
vn -0.8205247521 -0.267383188 -0.5052181482
v 62.72666931 135 1.536501646
vn -0.8885106444 -0.2882342041 -0.3570292592
v 62.6049881 135 1.933835745
vn -0.9322547317 -0.3008880913 -0.2009167075
v 62.55220413 135 2.34601903
vn -0.4108098745 -0.9115539789 -0.01745159179
v 62.56984329 135 2.761193752
vn -0.9449191093 -0.3041145504 0.1210049316
v 62.65739059 135 3.167415857
vn -0.9134404063 -0.2955924571 0.2797351778
v 62.81232834 135 3.552999258
vn -0.8575149775 -0.2788248956 0.4323479235
v 63.03020477 135 3.906851292
vn -0.7776411772 -0.2539376318 0.5751433372
v 63.30474854 135 4.218792439
vn -0.6747969389 -0.2212145478 0.704069078
v 63.62805939 135 4.479848862
vn -0.5507056713 -0.181186676 0.8147972822
v 63.99084091 135 4.682509899
vn -0.4081445634 -0.1347355247 0.9029198885
v 64.38265228 135 4.82094574
vn -0.2511064708 -0.08315267414 0.964381218
v 64.79222107 135 4.89117384
vn -0.1268750727 -0.04741403088 0.9907848239
v 65 135 4.900000095
vn -3.386594835e-05 -3.386594835e-05 1
v 65.2077713 135 4.89117384
vn 0.1100636199 -0.03795518354 0.9931995869
v 65.61734009 135 4.82094574
vn 0.2511042356 -0.08315194398 0.9643818736
v 66.00915527 135 4.682509899
vn 0.4081467986 -0.1347362697 0.902918756
v 66.37193298 135 4.479848862
vn 0.5507029891 -0.1811858267 0.8147993088
v 66.69525146 135 4.218792439
vn 0.6747983098 -0.2212150395 0.7040675282
v 66.9697876 135 3.906851292
vn 0.7776425481 -0.2539380789 0.5751413107
v 67.18766785 135 3.552999258
vn 0.8575139046 -0.2788245976 0.4323503077
v 67.34260559 135 3.167415857
vn 0.9134403467 -0.2955924869 0.2797351778
v 67.43015289 135 2.761193752
vn 0.4081358612 -0.9114238024 0.05226653069
v 67.44779205 135 2.34601903
vn 0.9514081478 -0.3052683473 -0.04041963816
v 67.39500427 135 1.933835745
vn 0.9322541356 -0.3008879721 -0.2009195089
v 67.27332306 135 1.536501646
vn 0.8885106444 -0.2882342339 -0.3570292592
v 67.08624268 135 1.165447116
vn 0.8205235004 -0.2673828006 -0.5052203536
v 66.83914185 135 0.8313469887
vn 0.7290079594 -0.2385308146 -0.6415998936
v 66.53913879 135 0.5438123345
vn 0.6152583957 -0.2020668238 -0.7619882822
v 66.19484711 135 0.3111155033
vn 0.4815157056 -0.1586938947 -0.8619506359
v 65.81619263 135 0.1399502456
vn 0.3311362863 -0.1094883382 -0.9372091889
v 65.41404724 135 0.0352409482
vn 0.168736577 -0.05595228076 -0.9840717912
v 130 135 4.900000095
vn 0.07506883889 -0.05219984055 0.9958111644
v 130 135 6.053596024e-08
vn 0.1488478482 -0.05630040541 -0.9872561097
v -9.685754776e-07 265 4.900000095
vn -0.02508863248 0.05017726496 0.9984251857
v -9.685754776e-07 265 6.053595314e-08
vn -0.05017726496 0.02508863248 -0.9984251857
v -9.685754776e-07 135 4.900000095
vn -0.1488604099 -0.05478539318 0.987339437
v -9.685754776e-07 135 6.053596024e-08
vn -0.07506278902 -0.05371812358 -0.9957308769
v 130 265 4.900000095
vn 0.05017726496 0.02508863248 0.9984251857
v 130 265 6.053595314e-08
vn 0.02508863248 0.05017726496 -0.9984251857
# mm_gid 0
g mmGroup0
f 1//1 2//2 3//3 
f 3//3 4//4 5//5 
f 6//6 4//4 3//3 
f 2//2 6//6 3//3 
f 3//3 7//7 8//8 
f 9//9 3//3 8//8 
f 5//5 7//7 3//3 
f 3//3 10//10 11//11 
f 12//12 10//10 3//3 
f 9//9 12//12 3//3 
f 3//3 13//13 14//14 
f 15//15 3//3 14//14 
f 11//11 13//13 3//3 
f 3//3 16//16 17//17 
f 18//18 16//16 3//3 
f 15//15 18//18 3//3 
f 3//3 19//19 20//20 
f 21//21 3//3 20//20 
f 17//17 19//19 3//3 
f 3//3 22//22 23//23 
f 24//24 22//22 3//3 
f 21//21 24//24 3//3 
f 3//3 25//25 26//26 
f 27//27 3//3 26//26 
f 23//23 25//25 3//3 
f 3//3 28//28 29//29 
f 30//30 28//28 3//3 
f 27//27 30//30 3//3 
f 3//3 31//31 32//32 
f 33//33 3//3 32//32 
f 29//29 31//31 3//3 
f 3//3 34//34 35//35 
f 36//36 34//34 3//3 
f 33//33 36//36 3//3 
f 3//3 37//37 38//38 
f 39//39 3//3 38//38 
f 35//35 37//37 3//3 
f 3//3 40//40 41//41 
f 42//42 40//40 3//3 
f 39//39 42//42 3//3 
f 3//3 43//43 44//44 
f 45//45 3//3 44//44 
f 41//41 43//43 3//3 
f 3//3 46//46 47//47 
f 48//48 46//46 3//3 
f 45//45 48//48 3//3 
f 3//3 49//49 50//50 
f 51//51 3//3 50//50 
f 47//47 49//49 3//3 
f 3//3 52//52 53//53 
f 54//54 52//52 3//3 
f 51//51 54//54 3//3 
f 3//3 55//55 56//56 
f 57//57 3//3 56//56 
f 53//53 55//55 3//3 
f 3//3 58//58 59//59 
f 60//60 58//58 3//3 
f 57//57 60//60 3//3 
f 3//3 61//61 62//62 
f 63//63 3//3 62//62 
f 59//59 61//61 3//3 
f 3//3 64//64 65//65 
f 66//66 64//64 3//3 
f 63//63 66//66 3//3 
f 3//3 67//67 68//68 
f 69//69 3//3 68//68 
f 65//65 67//67 3//3 
f 3//3 70//70 71//71 
f 72//72 70//70 3//3 
f 69//69 72//72 3//3 
f 3//3 73//73 74//74 
f 75//75 3//3 74//74 
f 71//71 73//73 3//3 
f 75//75 1//1 3//3 
f 39//39 76//76 77//77 
f 39//39 38//38 76//76 
f 76//76 38//38 37//37 
f 76//76 37//37 78//78 
f 37//37 35//35 78//78 
f 78//78 35//35 34//34 
f 78//78 34//34 79//79 
f 79//79 34//34 36//36 
f 79//79 36//36 80//80 
f 80//80 36//36 33//33 
f 33//33 32//32 80//80 
f 80//80 32//32 31//31 
f 80//80 31//31 81//81 
f 31//31 29//29 81//81 
f 81//81 29//29 28//28 
f 81//81 28//28 82//82 
f 28//28 30//30 82//82 
f 82//82 30//30 27//27 
f 82//82 27//27 83//83 
f 27//27 26//26 83//83 
f 83//83 26//26 25//25 
f 83//83 25//25 84//84 
f 25//25 23//23 84//84 
f 84//84 23//23 22//22 
f 84//84 22//22 85//85 
f 22//22 24//24 85//85 
f 85//85 24//24 21//21 
f 85//85 21//21 86//86 
f 21//21 20//20 86//86 
f 86//86 20//20 19//19 
f 86//86 19//19 87//87 
f 19//19 17//17 87//87 
f 87//87 17//17 16//16 
f 87//87 16//16 88//88 
f 16//16 18//18 88//88 
f 88//88 18//18 15//15 
f 88//88 15//15 89//89 
f 15//15 14//14 89//89 
f 89//89 14//14 13//13 
f 89//89 13//13 90//90 
f 13//13 11//11 90//90 
f 90//90 11//11 10//10 
f 90//90 10//10 91//91 
f 10//10 12//12 91//91 
f 91//91 12//12 9//9 
f 91//91 9//9 92//92 
f 9//9 8//8 92//92 
f 92//92 8//8 7//7 
f 92//92 7//7 93//93 
f 7//7 5//5 93//93 
f 93//93 5//5 4//4 
f 93//93 4//4 94//94 
f 94//94 4//4 6//6 
f 94//94 6//6 95//95 
f 95//95 6//6 2//2 
f 95//95 2//2 96//96 
f 2//2 1//1 96//96 
f 96//96 1//1 75//75 
f 96//96 75//75 97//97 
f 75//75 74//74 97//97 
f 97//97 74//74 73//73 
f 97//97 73//73 98//98 
f 73//73 71//71 98//98 
f 98//98 71//71 70//70 
f 98//98 70//70 99//99 
f 70//70 72//72 99//99 
f 99//99 72//72 69//69 
f 99//99 69//69 100//100 
f 69//69 68//68 100//100 
f 100//100 68//68 67//67 
f 100//100 67//67 101//101 
f 67//67 65//65 101//101 
f 101//101 65//65 64//64 
f 101//101 64//64 102//102 
f 64//64 66//66 102//102 
f 102//102 66//66 63//63 
f 102//102 63//63 103//103 
f 63//63 62//62 103//103 
f 103//103 62//62 61//61 
f 103//103 61//61 104//104 
f 61//61 59//59 104//104 
f 104//104 59//59 58//58 
f 104//104 58//58 105//105 
f 58//58 60//60 105//105 
f 105//105 60//60 57//57 
f 105//105 57//57 106//106 
f 57//57 56//56 106//106 
f 106//106 56//56 55//55 
f 106//106 55//55 107//107 
f 55//55 53//53 107//107 
f 107//107 53//53 52//52 
f 107//107 52//52 108//108 
f 52//52 54//54 108//108 
f 108//108 54//54 51//51 
f 108//108 51//51 109//109 
f 51//51 50//50 109//109 
f 109//109 50//50 49//49 
f 109//109 49//49 110//110 
f 49//49 47//47 110//110 
f 110//110 47//47 46//46 
f 110//110 46//46 111//111 
f 46//46 48//48 111//111 
f 111//111 48//48 45//45 
f 111//111 45//45 112//112 
f 45//45 44//44 112//112 
f 112//112 44//44 43//43 
f 112//112 43//43 113//113 
f 43//43 41//41 113//113 
f 113//113 41//41 40//40 
f 113//113 40//40 77//77 
f 77//77 40//40 42//42 
f 77//77 42//42 39//39 
f 114//114 95//95 96//96 
f 96//96 97//97 114//114 
f 114//114 97//97 98//98 
f 114//114 98//98 99//99 
f 99//99 100//100 114//114 
f 114//114 100//100 101//101 
f 114//114 101//101 102//102 
f 108//108 115//115 107//107 
f 107//107 115//115 106//106 
f 108//108 109//109 115//115 
f 115//115 109//109 110//110 
f 115//115 110//110 111//111 
f 102//102 103//103 114//114 
f 114//114 103//103 104//104 
f 114//114 104//104 115//115 
f 115//115 104//104 105//105 
f 115//115 105//105 106//106 
f 111//111 112//112 115//115 
f 115//115 112//112 113//113 
f 115//115 113//113 77//77 
f 116//116 117//117 118//118 
f 118//118 117//117 119//119 
f 114//114 120//120 95//95 
f 95//95 120//120 116//116 
f 95//95 116//116 118//118 
f 121//121 120//120 115//115 
f 115//115 120//120 114//114 
f 119//119 117//117 77//77 
f 77//77 117//117 121//121 
f 77//77 121//121 115//115 
f 120//120 121//121 116//116 
f 116//116 121//121 117//117 
f 87//87 88//88 118//118 
f 118//118 88//88 89//89 
f 89//89 90//90 118//118 
f 118//118 90//90 91//91 
f 118//118 91//91 92//92 
f 119//119 77//77 76//76 
f 76//76 78//78 119//119 
f 119//119 78//78 79//79 
f 119//119 79//79 80//80 
f 80//80 81//81 119//119 
f 119//119 81//81 82//82 
f 119//119 82//82 83//83 
f 92//92 93//93 118//118 
f 118//118 93//93 94//94 
f 118//118 94//94 95//95 
f 83//83 84//84 119//119 
f 119//119 84//84 85//85 
f 119//119 85//85 118//118 
f 118//118 85//85 86//86 
f 118//118 86//86 87//87 
